<?xml version="1.0" standalone="no"?>
<!DOCTYPE svg PUBLIC "-//W3C//DTD SVG 20010904//EN"
 "http://www.w3.org/TR/2001/REC-SVG-20010904/DTD/svg10.dtd">
<svg version="1.0" xmlns="http://www.w3.org/2000/svg"
 width="486.000000pt" height="452.000000pt" viewBox="0 0 486.000000 452.000000"
 preserveAspectRatio="xMidYMid meet">

<g transform="translate(0.000000,452.000000) scale(0.100000,-0.100000)"
fill="#000000" stroke="none">
<path d="M2060 3949 c-25 -4 -74 -16 -108 -28 -35 -12 -70 -21 -78 -21 -32 0
-163 -73 -224 -125 -67 -57 -96 -104 -105 -170 -2 -20 -20 -60 -38 -88 -106
-162 -142 -287 -134 -472 4 -105 10 -133 41 -223 20 -56 36 -111 36 -121 0
-10 7 -24 15 -31 8 -7 15 -25 15 -41 0 -15 5 -31 10 -34 6 -3 10 -13 10 -22 0
-13 -5 -12 -25 7 -38 36 -50 16 -49 -83 0 -80 20 -177 36 -177 4 0 8 24 9 53
0 58 19 123 34 120 6 -1 14 -8 20 -17 7 -11 3 -21 -14 -37 -21 -20 -23 -28
-18 -85 5 -64 21 -94 51 -94 16 0 21 -12 32 -72 5 -31 3 -38 -10 -38 -9 0 -16
-7 -16 -16 0 -10 7 -14 22 -12 17 2 26 -5 40 -33 9 -20 28 -43 41 -52 19 -12
44 -64 98 -199 l74 -183 0 -170 c0 -93 4 -173 9 -176 5 -4 5 -12 1 -19 -6 -9
-9 -9 -15 -1 -5 8 -16 3 -37 -16 -16 -16 -48 -37 -69 -47 -96 -46 -144 -72
-208 -114 -38 -25 -96 -57 -130 -70 -34 -14 -70 -30 -81 -37 -11 -7 -36 -16
-55 -20 -54 -11 -198 -54 -270 -82 -69 -27 -114 -49 -220 -105 -36 -19 -78
-38 -95 -42 -16 -4 -53 -23 -81 -41 -28 -19 -64 -40 -80 -47 -60 -26 -135 -80
-196 -141 -77 -77 -172 -209 -194 -268 -17 -49 -44 -189 -44 -231 l0 -28 2381
0 2381 0 -7 27 c-4 16 -11 54 -16 86 -10 59 -65 185 -97 222 -10 11 -39 49
-65 85 -25 36 -61 81 -79 101 -110 121 -326 237 -538 289 -88 22 -384 122
-479 162 -53 22 -130 51 -171 65 -41 14 -111 38 -155 53 -44 16 -101 34 -126
40 -42 11 -49 17 -82 76 -37 63 -85 107 -74 67 23 -82 13 -154 -24 -173 -12
-7 -19 -7 -19 -1 0 6 -6 8 -12 6 -23 -8 -36 9 -40 55 -3 25 -8 53 -12 62 -6
13 -1 19 25 25 31 8 34 14 44 68 2 11 4 22 5 25 1 3 1 49 1 103 -2 123 8 156
76 248 68 92 95 143 123 239 12 41 30 90 41 108 18 32 37 110 43 182 2 19 11
64 21 99 13 48 15 78 9 120 -12 81 -5 159 18 200 11 19 22 55 24 80 3 26 11
95 19 154 26 193 16 315 -39 476 -14 41 -26 84 -26 96 0 12 -8 33 -19 46 -10
13 -23 40 -30 60 -15 46 -54 83 -111 105 -41 16 -100 66 -100 85 0 18 -91 80
-136 91 -27 8 -60 21 -75 31 -34 23 -136 57 -171 57 -16 0 -45 7 -66 17 -30
13 -72 16 -217 17 -99 1 -200 -2 -225 -5z m683 -664 c39 -19 77 -35 84 -35 44
0 169 -114 197 -180 10 -25 34 -79 53 -120 60 -128 110 -422 99 -585 -11 -177
-48 -300 -90 -300 -21 0 -37 -25 -30 -47 3 -10 1 -18 -5 -18 -5 0 -15 17 -22
38 -7 20 -19 42 -27 48 -9 6 -13 18 -9 28 4 11 1 16 -11 17 -34 2 -39 4 -56
21 -10 11 -33 18 -55 18 -27 0 -57 12 -110 46 -39 26 -74 44 -76 42 -3 -2 2
-31 11 -64 15 -58 9 -104 -15 -104 -14 0 -74 28 -96 46 -20 15 -20 16 6 37 43
36 40 48 -20 79 -40 21 -60 26 -71 20 -17 -10 -42 -10 -151 3 -56 6 -70 4 -99
-13 -24 -15 -39 -18 -56 -12 -15 6 -26 5 -30 -1 -6 -10 5 -28 47 -81 16 -19
20 -33 15 -53 -7 -27 -7 -28 -82 -23 -41 3 -77 8 -81 12 -4 4 -2 16 5 26 18
29 15 33 -20 26 -18 -4 -71 -11 -118 -16 -117 -13 -164 -19 -170 -21 -3 -1 -9
-1 -14 0 -4 1 -14 -4 -22 -10 -10 -8 -18 -9 -27 0 -8 6 -17 8 -20 4 -4 -3 -7
3 -7 15 0 13 -6 22 -16 22 -8 0 -13 4 -9 10 3 5 1 17 -4 27 -27 49 -60 154
-66 209 -5 38 -2 99 8 165 9 57 18 143 21 191 5 69 12 101 36 150 17 34 30 77
30 96 0 47 26 86 86 132 58 44 102 64 194 90 73 21 90 15 90 -31 0 -35 17 -37
49 -8 18 17 28 19 44 12 31 -13 107 -17 107 -5 0 5 17 13 38 17 20 4 37 6 37
5 0 0 17 6 37 14 21 9 50 16 66 16 16 0 37 9 46 19 10 10 33 22 51 25 19 4 47
13 62 21 44 23 89 18 166 -20z m155 -1367 c-2 -36 -7 -44 -25 -46 -26 -4 -27
-1 -12 67 9 45 12 49 25 36 10 -10 14 -30 12 -57z m-270 54 c6 -1 12 -10 12
-21 0 -14 6 -17 23 -14 16 3 33 -5 56 -26 30 -28 33 -36 28 -68 -4 -20 -11
-39 -16 -42 -5 -4 -11 -30 -13 -59 -2 -40 -7 -52 -19 -52 -9 0 -22 -7 -29 -15
-9 -11 -16 -13 -24 -5 -16 16 -32 12 -72 -15 -44 -30 -64 -31 -92 -6 -17 14
-32 17 -69 13 -27 -3 -76 -6 -110 -5 -35 0 -63 -3 -63 -7 0 -12 -42 1 -62 18
-11 9 -18 29 -18 53 0 33 -4 40 -25 45 -18 4 -28 16 -35 44 -13 49 0 85 34 94
33 8 62 -10 77 -49 22 -54 53 -73 134 -80 49 -5 91 -3 127 6 85 21 109 39 124
89 18 59 17 62 -5 55 -10 -3 -78 -7 -150 -9 -121 -4 -135 -2 -179 19 -45 22
-45 26 -4 37 11 3 343 3 370 0z m-15 -1330 c16 -14 18 -14 30 2 22 31 52 16
55 -27 2 -20 7 -37 13 -37 5 0 9 -9 9 -21 0 -11 9 -32 20 -46 18 -23 18 -27 3
-49 -14 -22 -11 -29 10 -25 14 2 -6 -53 -40 -109 -18 -30 -33 -64 -33 -75 0
-11 -4 -27 -10 -35 -8 -12 -10 -12 -16 3 -3 9 -12 17 -20 17 -8 0 -14 5 -14
10 0 17 -38 11 -49 -8 -7 -11 -10 -12 -11 -4 0 21 -40 73 -51 66 -6 -3 -1 -20
11 -38 11 -19 20 -42 20 -52 0 -13 -25 7 -79 66 -44 46 -77 88 -75 92 3 5 10
6 15 2 5 -3 16 -1 24 6 10 8 13 40 10 143 -2 92 0 134 8 140 19 12 150 -3 170
-21z m-302 -53 c13 -26 -2 -69 -25 -69 -18 0 -46 27 -46 45 0 47 49 63 71 24z
m323 -491 c9 -34 7 -41 -8 -35 -7 3 -19 0 -25 -6 -19 -19 -22 0 -4 32 21 37
29 39 37 9z"/>
<path d="M2675 2894 c-62 -9 -151 -36 -171 -53 -43 -35 -54 -62 -43 -111 6
-25 15 -65 20 -90 23 -104 151 -163 314 -144 44 5 61 13 89 41 19 20 50 38 68
42 20 4 37 16 45 30 18 37 -8 109 -52 144 -43 35 -45 51 -5 45 17 -3 30 -1 30
3 0 9 -57 52 -95 72 -32 16 -148 28 -200 21z m153 -267 c2 -10 -4 -20 -13 -23
-21 -9 -28 0 -20 26 8 24 28 22 33 -3z"/>
<path d="M1893 2846 c-79 -36 -174 -139 -186 -203 -12 -62 40 -133 97 -133 8
0 26 -11 39 -25 45 -50 243 -57 333 -13 23 11 60 37 83 57 38 33 43 43 60 126
l19 90 -36 40 c-63 70 -62 70 -227 73 -114 2 -158 -1 -182 -12z"/>
<path d="M2420 360 c0 -5 7 -10 16 -10 8 0 12 5 9 10 -3 6 -10 10 -16 10 -5 0
-9 -4 -9 -10z"/>
<path d="M3246 2599 c-18 -30 -18 -33 -1 -90 12 -39 21 -55 27 -47 10 17 11
168 0 168 -4 0 -16 -14 -26 -31z"/>
<path d="M1490 2205 c0 -8 7 -15 16 -15 14 0 14 3 4 15 -7 8 -14 15 -16 15 -2
0 -4 -7 -4 -15z"/>
</g>
</svg>
