<?xml version="1.0" standalone="no"?>
<!DOCTYPE svg PUBLIC "-//W3C//DTD SVG 20010904//EN"
 "http://www.w3.org/TR/2001/REC-SVG-20010904/DTD/svg10.dtd">
<svg version="1.0" xmlns="http://www.w3.org/2000/svg"
 width="338.000000pt" height="338.000000pt" viewBox="0 0 338.000000 338.000000"
 preserveAspectRatio="xMidYMid meet">

<g transform="translate(0.000000,338.000000) scale(0.100000,-0.100000)"
fill="#000000" stroke="none">
<path d="M780 3111 c-21 -22 -45 -61 -55 -88 -36 -104 -29 -310 16 -411 17
-40 17 -46 4 -72 -21 -40 -19 -112 5 -195 11 -38 20 -78 20 -89 0 -10 -32 -52
-70 -93 -76 -81 -126 -172 -154 -278 -17 -64 -33 -225 -23 -225 4 0 16 20 28
44 23 50 57 87 46 51 -31 -99 -27 -259 10 -389 l18 -61 6 55 c7 59 47 171 64
177 6 2 11 -18 13 -45 3 -47 50 -201 77 -250 14 -27 14 -27 8 10 -10 64 11 43
60 -59 26 -54 69 -141 96 -192 l49 -95 -6 112 c-2 62 -2 112 2 112 3 0 17 -24
30 -53 l24 -52 7 43 c8 46 20 54 31 20 3 -13 31 -77 62 -143 30 -66 63 -144
72 -174 l17 -54 15 43 c8 24 19 45 25 47 6 2 33 -36 59 -86 26 -49 52 -89 57
-88 6 1 24 -31 42 -72 32 -71 33 -73 42 -45 9 28 10 27 87 -81 43 -61 88 -129
99 -152 12 -24 24 -43 27 -43 4 0 17 19 29 43 26 46 189 267 198 267 3 0 3
-14 -1 -30 -3 -19 -2 -29 4 -25 6 3 10 10 10 14 0 5 14 39 31 77 23 50 33 64
38 52 4 -13 21 11 60 82 59 109 75 116 88 37 l6 -40 32 89 c28 78 121 292 131
303 2 2 6 -15 10 -38 7 -46 19 -53 28 -16 4 14 16 40 27 58 l20 32 -3 -118 -3
-118 92 187 c51 103 96 190 99 193 4 3 4 -10 1 -29 -5 -28 0 -21 24 30 30 65
53 141 64 214 l7 40 21 -34 c11 -18 31 -67 42 -108 l22 -74 14 64 c15 67 19
290 7 347 -7 30 -6 32 8 20 8 -7 27 -33 40 -58 l25 -46 -5 80 c-11 163 -71
309 -180 436 l-65 76 20 74 c23 89 26 163 7 208 -12 30 -11 41 9 102 36 107
49 216 34 297 -23 129 -86 222 -150 222 -16 0 -46 -12 -67 -26 -43 -30 -232
-192 -307 -263 l-48 -46 -417 0 -417 -1 -19 24 c-24 30 -304 265 -347 291 -52
32 -86 27 -129 -18z m171 -191 c49 -50 91 -100 94 -112 4 -11 23 -38 42 -59
26 -28 31 -39 19 -39 -14 0 -14 -5 5 -42 12 -24 28 -51 37 -61 18 -20 17 -21
-28 -33 -47 -13 -54 -54 -16 -93 l26 -27 -24 -23 c-16 -15 -42 -25 -72 -29
-50 -5 -51 -1 -16 41 13 14 13 17 1 17 -8 0 -20 4 -28 9 -12 8 -12 13 -3 24 9
11 10 22 2 42 -15 39 -4 62 36 83 l35 18 -61 29 c-78 38 -102 63 -98 106 2 26
9 35 27 39 l24 5 -26 12 c-14 7 -33 26 -42 43 -17 32 -14 36 15 20 13 -7 9 5
-16 41 -32 48 -43 79 -27 79 4 0 46 -41 94 -90z m120 40 c59 -44 118 -106 144
-150 12 -19 -36 21 -144 121 -47 43 -81 79 -76 79 6 0 40 -23 76 -50z m1319
47 c0 -8 -222 -209 -226 -204 -3 2 19 31 48 62 68 75 178 163 178 142z m140
-11 c0 -8 -15 -37 -34 -64 -32 -48 -33 -50 -10 -42 13 5 24 7 24 4 0 -17 -25
-48 -53 -64 -28 -18 -29 -20 -10 -20 33 0 47 -33 28 -69 -17 -34 -54 -63 -117
-91 -24 -11 -36 -20 -27 -20 9 0 28 -9 43 -21 28 -22 35 -66 14 -88 -11 -10
-9 -14 5 -22 14 -8 16 -14 6 -25 -6 -8 -21 -14 -32 -14 -18 0 -17 -2 7 -21 39
-31 33 -42 -20 -36 -28 3 -54 13 -69 27 l-24 23 24 29 c14 16 25 38 25 48 0
23 -36 50 -67 50 -25 0 -31 15 -10 23 12 4 57 86 57 102 0 3 -6 5 -14 5 -7 0
4 17 25 39 22 21 42 53 45 70 4 17 14 33 25 36 10 4 49 40 86 81 37 41 69 74
70 74 2 0 3 -6 3 -14z m-1693 -148 c38 -26 42 -38 13 -38 -21 0 -60 33 -60 50
0 15 10 12 47 -12z m1753 12 c0 -18 -40 -50 -62 -50 -21 1 -20 3 12 30 36 31
50 37 50 20z m-1670 -200 c48 -24 47 -35 -3 -26 -40 8 -87 50 -87 79 0 18 2
18 24 -6 13 -14 42 -35 66 -47z m1620 21 c-14 -28 -65 -53 -98 -49 -23 3 -21
6 27 31 28 16 57 38 64 48 16 26 23 -1 7 -30z m-1267 -57 c74 -19 132 -42 125
-50 -3 -3 -32 2 -64 10 -32 8 -60 14 -61 12 -2 -2 15 -15 37 -30 41 -27 80
-79 80 -106 0 -8 -10 0 -21 18 -12 18 -49 51 -83 74 -71 47 -106 78 -106 91 0
5 7 6 15 3 9 -3 44 -13 78 -22z m912 -4 c-16 -17 -48 -42 -71 -55 -23 -14 -61
-46 -84 -72 -33 -38 -41 -42 -35 -23 13 43 38 72 85 102 48 31 46 32 -49 7
-39 -10 -48 -7 -29 9 13 10 170 59 197 61 9 1 3 -11 -14 -29z m-1295 -166
c-33 -58 -33 -79 -2 -51 25 22 39 22 20 0 -8 -10 -23 -39 -33 -65 -16 -42 -35
-64 -35 -39 0 5 -8 11 -18 13 -28 8 -34 69 -16 157 9 42 18 78 20 80 2 2 4
-29 4 -70 l1 -74 42 77 c35 64 43 73 45 52 2 -14 -10 -48 -28 -80z m1593 79
c8 -16 26 -50 40 -77 26 -47 27 -48 29 -20 1 16 0 49 -1 74 -4 63 7 46 24 -39
17 -80 11 -149 -14 -159 -9 -3 -19 -10 -23 -16 -8 -12 -5 -16 -44 62 -33 65
-32 72 4 46 29 -20 28 -15 -8 53 -26 48 -39 103 -26 103 3 0 11 -12 19 -27z
m-937 -158 c39 -88 54 -166 54 -274 0 -56 -4 -101 -8 -101 -5 0 -19 11 -32 25
-29 30 -83 49 -121 41 -19 -4 -40 1 -62 14 -18 11 -56 23 -85 27 -52 8 -52 8
-37 30 9 12 31 25 51 29 22 4 31 9 24 14 -7 4 -10 12 -6 18 8 13 109 -20 149
-48 15 -12 27 -16 27 -11 0 5 -4 13 -10 16 -5 3 -10 11 -10 16 0 19 61 -22 80
-54 13 -21 20 -26 20 -15 0 31 -38 212 -58 275 -23 74 -10 73 24 -2z m315 2
c-21 -59 -46 -180 -56 -262 -6 -49 -6 -49 8 -20 14 31 70 85 88 85 5 0 2 -12
-8 -27 -17 -28 -17 -28 2 -12 46 38 135 72 162 62 13 -5 11 -9 -8 -24 l-24
-19 41 0 c36 0 64 -13 64 -31 0 -3 -23 -9 -51 -13 -27 -4 -64 -13 -82 -21 -18
-8 -54 -17 -80 -20 -37 -5 -56 -15 -83 -42 -29 -28 -38 -33 -45 -22 -16 25
-10 173 10 251 19 73 68 185 77 176 2 -3 -5 -30 -15 -61z m-763 -117 c-5 -41
-7 -87 -5 -102 4 -34 -8 -37 -17 -5 -11 40 -6 117 9 154 8 20 17 34 19 32 2
-2 -1 -38 -6 -79z m1201 49 c14 -39 14 -149 1 -169 -7 -11 -10 4 -10 50 -1 36
-5 84 -9 108 -10 49 2 56 18 11z m-1303 -91 c-8 -29 -22 -62 -31 -73 -15 -19
-16 -18 -9 15 3 19 16 60 27 90 26 67 35 43 13 -32z m1414 4 c11 -37 23 -76
27 -87 5 -17 4 -18 -11 -6 -15 13 -56 127 -56 158 0 32 21 -2 40 -65z m-1520
-20 c-19 -7 -70 -58 -70 -70 0 -6 10 -8 23 -5 21 6 21 5 -4 -23 -45 -50 -51
-67 -27 -80 21 -11 21 -12 -10 -28 -17 -9 -36 -24 -41 -34 -8 -16 -5 -17 27
-14 l37 4 -36 -38 c-51 -56 -73 -91 -98 -159 -24 -63 -22 -63 23 -2 15 21 30
37 31 35 2 -2 -21 -53 -50 -113 -53 -106 -55 -108 -55 -69 0 66 20 156 45 202
13 23 22 42 21 42 -2 0 -22 -7 -45 -15 -47 -16 -52 -9 -15 26 26 24 55 74 69
118 7 22 5 23 -19 19 -32 -6 -33 -12 28 80 50 76 91 113 141 129 30 10 54 5
25 -5z m1694 -30 c16 -15 111 -138 129 -168 4 -7 -4 -9 -24 -6 -16 2 -29 1
-29 -2 0 -17 55 -114 78 -138 28 -30 24 -33 -26 -19 -36 11 -38 9 -18 -22 23
-34 46 -135 46 -197 l0 -55 -52 105 c-29 58 -54 109 -56 114 -10 21 22 -9 50
-47 23 -33 29 -36 23 -17 -14 52 -66 146 -100 182 -19 20 -35 40 -35 43 0 4
14 5 30 3 40 -6 34 10 -14 41 -34 23 -35 26 -17 35 23 13 16 31 -28 80 -25 28
-25 29 -3 23 31 -7 28 6 -13 49 -19 20 -35 38 -35 41 0 7 75 -28 94 -45z
m-205 -156 c20 -79 8 -235 -19 -251 -5 -3 -6 48 -4 112 l5 118 -19 -40 c-26
-55 -103 -120 -165 -141 -107 -35 -155 -61 -172 -94 -20 -38 -12 -66 24 -85
27 -14 76 -64 97 -100 12 -21 2 107 -11 139 -6 13 -5 17 2 13 19 -12 43 -98
43 -154 0 -63 -28 -142 -68 -192 -16 -20 -32 -53 -35 -75 -3 -21 -18 -56 -33
-77 -29 -43 -114 -104 -158 -115 l-30 -7 22 31 c25 34 46 81 56 127 l8 30 -24
-21 c-19 -18 -78 -39 -78 -28 0 2 12 20 26 41 22 32 25 46 22 91 -3 37 -11 60
-27 75 -20 20 -31 22 -152 22 -149 0 -160 -5 -173 -86 -6 -35 -2 -50 24 -95
33 -59 27 -66 -31 -36 l-36 18 7 -30 c10 -44 48 -116 65 -123 32 -11 13 -21
-22 -11 -62 17 -107 44 -147 88 -41 46 -56 77 -56 119 0 15 -9 36 -20 46 -31
28 -69 117 -76 177 -6 56 18 172 39 185 7 4 8 0 2 -13 -4 -10 -9 -59 -11 -109
-2 -57 0 -79 5 -60 12 48 28 71 76 111 33 26 45 44 45 63 0 48 -25 69 -118 97
-126 39 -179 77 -222 160 l-21 39 5 -120 c5 -117 5 -119 -11 -85 -21 45 -23
189 -4 245 l14 40 17 -51 c21 -66 51 -107 106 -145 l46 -31 -16 30 c-17 32
-23 192 -8 192 4 -1 21 -24 37 -53 38 -67 105 -103 217 -117 71 -9 157 -35
147 -44 -2 -2 -24 0 -49 4 -25 5 -58 9 -74 10 l-29 0 27 -21 c28 -22 35 -64
15 -101 -6 -11 -20 -64 -30 -117 -11 -53 -22 -103 -25 -113 -3 -9 15 4 39 28
40 39 49 44 91 44 25 0 46 -4 46 -10 0 -5 -8 -10 -17 -10 -10 0 -27 -7 -37
-15 -19 -14 -17 -15 20 -15 21 0 59 -5 84 -11 33 -8 70 -7 139 2 l93 13 -28
23 -29 23 33 0 c46 0 95 -23 122 -56 l23 -29 -6 30 c-16 94 -31 155 -48 193
-30 68 -23 104 26 130 18 10 17 11 -11 12 -17 0 -55 -5 -84 -10 -29 -6 -55 -8
-58 -5 -11 10 67 34 148 45 115 16 165 42 215 113 37 54 40 56 48 35 11 -29 0
-112 -19 -150 -19 -36 -7 -35 43 1 55 40 89 87 104 143 7 26 16 45 20 43 3 -3
12 -25 18 -49z m-995 -16 c36 -35 27 -50 -31 -50 -50 0 -83 20 -83 51 0 45 66
45 114 -1z m141 -7 c10 -15 29 -40 43 -55 29 -31 12 -39 -25 -13 -19 13 -73
94 -73 110 0 13 38 -16 55 -42z m368 2 c-26 -47 -66 -85 -90 -85 -9 0 3 21 29
52 73 89 101 104 61 33z m195 33 c34 -34 -13 -78 -83 -78 -44 0 -45 17 -6 59
30 32 68 40 89 19z m-1172 -73 c-4 -19 -20 -64 -36 -99 l-29 -65 41 40 c22 21
44 39 48 39 5 0 4 -16 -1 -36 -7 -24 -6 -66 2 -131 10 -85 13 -94 25 -78 8 10
14 22 14 27 0 4 5 8 10 8 6 0 10 -6 10 -14 0 -8 8 -21 19 -28 10 -7 22 -24 26
-38 4 -14 21 -52 38 -85 33 -66 34 -67 -67 19 l-59 50 7 -74 7 -74 -27 25
c-32 29 -43 56 -55 134 -5 33 -12 71 -15 85 -6 23 -7 22 -19 -15 l-12 -40 -12
30 c-7 17 -13 55 -13 86 -1 46 7 73 48 162 27 59 51 107 53 107 2 0 0 -16 -3
-35z m1564 11 c0 -6 18 -49 39 -94 22 -45 43 -97 46 -116 7 -34 -12 -143 -26
-151 -4 -3 -11 14 -15 37 -5 35 -8 39 -15 23 -4 -11 -8 -38 -8 -61 -1 -58 -27
-127 -61 -159 l-29 -28 6 74 6 74 -61 -54 c-34 -29 -65 -57 -68 -62 -3 -5 -9
-9 -13 -9 -4 0 4 24 19 53 15 30 32 68 38 85 6 18 18 32 26 32 9 0 18 11 22
25 8 31 20 32 30 3 l7 -23 9 24 c15 42 21 167 10 200 -15 41 -1 39 48 -7 22
-22 40 -38 40 -37 0 2 -13 31 -29 66 -33 73 -49 135 -32 125 6 -4 11 -13 11
-20z m-682 -291 c68 -20 67 -35 0 -23 -53 10 -201 5 -247 -8 -46 -14 -11 15
37 30 62 19 146 20 210 1z m-924 -288 c31 -62 59 -132 62 -157 4 -33 3 -41 -5
-30 -6 8 -11 21 -11 29 0 7 -23 59 -51 115 -29 55 -58 117 -65 136 l-13 35 0
-63 c-1 -67 -16 -76 -27 -17 -5 31 10 124 24 150 3 5 11 -12 18 -39 7 -26 37
-98 68 -159z m1734 147 c18 -63 13 -144 -9 -144 -5 0 -7 10 -4 23 3 12 2 40
-4 62 -5 22 -9 31 -10 20 -1 -11 -28 -73 -61 -139 -33 -65 -60 -126 -60 -137
0 -10 -4 -21 -10 -24 -27 -17 6 87 65 208 31 61 58 128 62 150 7 44 15 39 31
-19z m-217 -196 c12 -45 6 -89 -18 -151 -15 -36 -17 -38 -24 -19 -6 15 -17 22
-34 22 -21 0 -30 -9 -48 -47 l-22 -48 -3 54 -3 54 -31 -64 c-17 -35 -39 -89
-49 -119 l-19 -55 4 52 c2 35 16 78 44 135 22 46 44 96 49 113 10 30 10 30 22
7 18 -34 31 -26 31 20 l0 41 23 -21 c13 -12 26 -22 29 -22 12 0 29 67 22 85
-5 12 -4 16 4 11 6 -4 16 -25 23 -48z m-1344 -39 c6 -6 14 -5 23 6 18 21 30
19 30 -7 0 -13 4 -30 10 -38 8 -12 10 -12 16 3 7 19 24 23 24 5 0 -6 20 -55
45 -108 44 -95 71 -201 47 -186 -7 4 -12 17 -12 30 0 12 -18 58 -40 101 -39
77 -40 78 -35 38 3 -24 3 -43 1 -43 -2 0 -14 20 -26 45 -17 36 -27 45 -47 45
-16 0 -27 -7 -30 -20 -9 -32 -19 -23 -36 31 -20 61 -21 104 -5 150 l12 34 7
-38 c3 -21 10 -42 16 -48z m447 -356 c24 -46 41 -83 39 -83 -2 0 -20 12 -38
26 -37 28 -85 114 -85 153 0 24 0 24 20 6 12 -11 40 -56 64 -102z m475 66 c-6
-23 -14 -49 -19 -58 -11 -21 -90 -97 -90 -87 0 4 14 37 30 73 56 120 98 158
79 72z m-639 -17 c0 -15 11 -73 23 -129 23 -101 22 -129 -2 -77 -32 71 -56
254 -31 239 6 -3 10 -18 10 -33z m730 -111 c-13 -59 -39 -126 -46 -119 -4 4
11 87 42 233 l9 40 3 -50 c2 -27 -2 -74 -8 -104z m-449 65 c6 -6 9 -5 9 3 0
11 3 11 15 1 8 -6 19 -9 24 -6 5 4 13 2 16 -4 5 -8 11 -8 20 0 9 7 15 8 19 1
7 -11 37 -3 49 13 5 7 10 6 17 -4 7 -11 10 -7 10 18 0 41 15 41 29 1 16 -47
13 -84 -9 -110 l-19 -24 -1 27 c0 31 -18 47 -31 27 -6 -11 -12 -10 -28 5 -19
17 -21 17 -27 2 -6 -16 -8 -16 -24 -1 -17 15 -19 15 -28 -1 -8 -15 -13 -16
-25 -6 -13 11 -16 10 -22 -7 -3 -12 -3 -25 0 -31 3 -5 2 -10 -4 -10 -14 0 -41
53 -41 80 0 12 8 35 17 53 17 32 17 32 21 7 2 -14 8 -29 13 -34z m81 -176 c24
1 67 9 95 19 29 10 55 16 58 13 3 -3 5 -18 5 -33 0 -22 -4 -26 -20 -22 -12 3
-33 -6 -57 -26 -42 -35 -67 -39 -82 -13 -9 16 -10 16 -16 0 -10 -25 -25 -22
-68 13 -24 20 -45 29 -57 26 -16 -4 -20 0 -20 22 0 15 3 30 6 33 3 3 30 -3 59
-13 30 -10 74 -19 97 -19z"/>
</g>
</svg>
